<mxfile host="app.diagrams.net" modified="2023-08-02T07:59:43.842Z" agent="Mozilla/5.0 (Macintosh; Intel Mac OS X 10_15_7) AppleWebKit/537.36 (KHTML, like Gecko) Chrome/115.0.0.0 Safari/537.36" etag="HcV2svcQb84vvEu7keOy" version="21.5.2" type="github">
  <diagram name="第 1 页" id="CgU7UgRMsTkbMQMuWX5E">
    <mxGraphModel dx="1562" dy="840" grid="1" gridSize="10" guides="1" tooltips="1" connect="1" arrows="1" fold="1" page="1" pageScale="1" pageWidth="827" pageHeight="550" math="0" shadow="0">
      <root>
        <mxCell id="0" />
        <mxCell id="1" parent="0" />
        <mxCell id="7GZUmNrW7w7j3KrRRJnY-17" value="" style="rounded=0;whiteSpace=wrap;html=1;fillColor=#d5e8d4;strokeColor=none;" vertex="1" parent="1">
          <mxGeometry x="340" y="200" width="160" height="30" as="geometry" />
        </mxCell>
        <mxCell id="7GZUmNrW7w7j3KrRRJnY-16" value="" style="rounded=0;whiteSpace=wrap;html=1;fillColor=#fff2cc;strokeColor=none;" vertex="1" parent="1">
          <mxGeometry x="230" y="200" width="110" height="30" as="geometry" />
        </mxCell>
        <mxCell id="7GZUmNrW7w7j3KrRRJnY-12" value="" style="rounded=0;whiteSpace=wrap;html=1;fillColor=#dae8fc;strokeColor=none;" vertex="1" parent="1">
          <mxGeometry x="60" y="200" width="170" height="30" as="geometry" />
        </mxCell>
        <mxCell id="7GZUmNrW7w7j3KrRRJnY-1" value="&lt;font face=&quot;Times New Roman&quot;&gt;X&lt;sub&gt;1&lt;/sub&gt;&lt;/font&gt;" style="text;html=1;strokeColor=none;fillColor=none;align=center;verticalAlign=middle;whiteSpace=wrap;rounded=0;" vertex="1" parent="1">
          <mxGeometry x="50" y="200" width="60" height="30" as="geometry" />
        </mxCell>
        <mxCell id="7GZUmNrW7w7j3KrRRJnY-2" value="&lt;font face=&quot;Times New Roman&quot;&gt;X&lt;span style=&quot;font-size: 10px;&quot;&gt;&lt;sub&gt;2&lt;/sub&gt;&lt;/span&gt;&lt;/font&gt;" style="text;html=1;strokeColor=none;fillColor=none;align=center;verticalAlign=middle;whiteSpace=wrap;rounded=0;" vertex="1" parent="1">
          <mxGeometry x="90" y="200" width="60" height="30" as="geometry" />
        </mxCell>
        <mxCell id="7GZUmNrW7w7j3KrRRJnY-3" value="&lt;font style=&quot;font-size: 14px;&quot;&gt;&lt;sup style=&quot;&quot;&gt;[M]&lt;/sup&gt;&lt;/font&gt;" style="text;html=1;strokeColor=none;fillColor=none;align=center;verticalAlign=middle;whiteSpace=wrap;rounded=0;" vertex="1" parent="1">
          <mxGeometry x="130" y="200" width="60" height="30" as="geometry" />
        </mxCell>
        <mxCell id="7GZUmNrW7w7j3KrRRJnY-4" value="X&lt;sub&gt;3&lt;/sub&gt;" style="text;html=1;strokeColor=none;fillColor=none;align=center;verticalAlign=middle;whiteSpace=wrap;rounded=0;" vertex="1" parent="1">
          <mxGeometry x="170" y="200" width="60" height="30" as="geometry" />
        </mxCell>
        <mxCell id="7GZUmNrW7w7j3KrRRJnY-5" value="X&lt;sub&gt;4&lt;/sub&gt;" style="text;html=1;strokeColor=none;fillColor=none;align=center;verticalAlign=middle;whiteSpace=wrap;rounded=0;rotation=0;" vertex="1" parent="1">
          <mxGeometry x="255" y="200" width="60" height="30" as="geometry" />
        </mxCell>
        <mxCell id="7GZUmNrW7w7j3KrRRJnY-6" value="X&lt;sub&gt;5&lt;/sub&gt;" style="text;html=1;strokeColor=none;fillColor=none;align=center;verticalAlign=middle;whiteSpace=wrap;rounded=0;" vertex="1" parent="1">
          <mxGeometry x="290" y="200" width="60" height="30" as="geometry" />
        </mxCell>
        <mxCell id="7GZUmNrW7w7j3KrRRJnY-7" value="[gMASK]" style="text;html=1;strokeColor=none;fillColor=none;align=center;verticalAlign=middle;whiteSpace=wrap;rounded=0;" vertex="1" parent="1">
          <mxGeometry x="340" y="200" width="60" height="30" as="geometry" />
        </mxCell>
        <mxCell id="7GZUmNrW7w7j3KrRRJnY-8" value="[S]" style="text;html=1;strokeColor=none;fillColor=none;align=center;verticalAlign=middle;whiteSpace=wrap;rounded=0;" vertex="1" parent="1">
          <mxGeometry x="384" y="200" width="60" height="30" as="geometry" />
        </mxCell>
        <mxCell id="7GZUmNrW7w7j3KrRRJnY-18" value="GLM" style="rounded=1;whiteSpace=wrap;html=1;" vertex="1" parent="1">
          <mxGeometry x="60" y="100" width="440" height="60" as="geometry" />
        </mxCell>
        <mxCell id="7GZUmNrW7w7j3KrRRJnY-19" value="Position 1&amp;nbsp;" style="text;html=1;strokeColor=none;fillColor=none;align=center;verticalAlign=middle;whiteSpace=wrap;rounded=0;" vertex="1" parent="1">
          <mxGeometry y="240" width="60" height="30" as="geometry" />
        </mxCell>
        <mxCell id="7GZUmNrW7w7j3KrRRJnY-20" value="0" style="text;html=1;strokeColor=none;fillColor=none;align=center;verticalAlign=middle;whiteSpace=wrap;rounded=0;" vertex="1" parent="1">
          <mxGeometry x="65" y="240" width="30" height="30" as="geometry" />
        </mxCell>
        <mxCell id="7GZUmNrW7w7j3KrRRJnY-21" value="1" style="text;html=1;strokeColor=none;fillColor=none;align=center;verticalAlign=middle;whiteSpace=wrap;rounded=0;" vertex="1" parent="1">
          <mxGeometry x="105" y="240" width="30" height="30" as="geometry" />
        </mxCell>
        <mxCell id="7GZUmNrW7w7j3KrRRJnY-22" value="2" style="text;html=1;strokeColor=none;fillColor=none;align=center;verticalAlign=middle;whiteSpace=wrap;rounded=0;" vertex="1" parent="1">
          <mxGeometry x="145" y="240" width="30" height="30" as="geometry" />
        </mxCell>
        <mxCell id="7GZUmNrW7w7j3KrRRJnY-23" value="3" style="text;html=1;strokeColor=none;fillColor=none;align=center;verticalAlign=middle;whiteSpace=wrap;rounded=0;" vertex="1" parent="1">
          <mxGeometry x="185" y="240" width="30" height="30" as="geometry" />
        </mxCell>
        <mxCell id="7GZUmNrW7w7j3KrRRJnY-24" value="3" style="text;html=1;strokeColor=none;fillColor=none;align=center;verticalAlign=middle;whiteSpace=wrap;rounded=0;" vertex="1" parent="1">
          <mxGeometry x="245" y="240" width="30" height="30" as="geometry" />
        </mxCell>
        <mxCell id="7GZUmNrW7w7j3KrRRJnY-25" value="3" style="text;html=1;strokeColor=none;fillColor=none;align=center;verticalAlign=middle;whiteSpace=wrap;rounded=0;" vertex="1" parent="1">
          <mxGeometry x="295" y="240" width="30" height="30" as="geometry" />
        </mxCell>
        <mxCell id="7GZUmNrW7w7j3KrRRJnY-26" value="4" style="text;html=1;strokeColor=none;fillColor=none;align=center;verticalAlign=middle;whiteSpace=wrap;rounded=0;" vertex="1" parent="1">
          <mxGeometry x="355" y="240" width="30" height="30" as="geometry" />
        </mxCell>
        <mxCell id="7GZUmNrW7w7j3KrRRJnY-27" value="4" style="text;html=1;strokeColor=none;fillColor=none;align=center;verticalAlign=middle;whiteSpace=wrap;rounded=0;" vertex="1" parent="1">
          <mxGeometry x="398.5" y="240" width="30" height="30" as="geometry" />
        </mxCell>
        <mxCell id="7GZUmNrW7w7j3KrRRJnY-30" value="4" style="text;html=1;strokeColor=none;fillColor=none;align=center;verticalAlign=middle;whiteSpace=wrap;rounded=0;" vertex="1" parent="1">
          <mxGeometry x="430" y="240" width="30" height="30" as="geometry" />
        </mxCell>
        <mxCell id="7GZUmNrW7w7j3KrRRJnY-31" value="Position 2" style="text;html=1;strokeColor=none;fillColor=none;align=center;verticalAlign=middle;whiteSpace=wrap;rounded=0;" vertex="1" parent="1">
          <mxGeometry y="270" width="60" height="30" as="geometry" />
        </mxCell>
        <mxCell id="7GZUmNrW7w7j3KrRRJnY-32" value="0" style="text;html=1;strokeColor=none;fillColor=none;align=center;verticalAlign=middle;whiteSpace=wrap;rounded=0;" vertex="1" parent="1">
          <mxGeometry x="70" y="270" width="25" height="30" as="geometry" />
        </mxCell>
        <mxCell id="7GZUmNrW7w7j3KrRRJnY-33" value="0" style="text;html=1;strokeColor=none;fillColor=none;align=center;verticalAlign=middle;whiteSpace=wrap;rounded=0;" vertex="1" parent="1">
          <mxGeometry x="105" y="270" width="30" height="30" as="geometry" />
        </mxCell>
        <mxCell id="7GZUmNrW7w7j3KrRRJnY-34" value="0" style="text;html=1;strokeColor=none;fillColor=none;align=center;verticalAlign=middle;whiteSpace=wrap;rounded=0;" vertex="1" parent="1">
          <mxGeometry x="145" y="270" width="30" height="30" as="geometry" />
        </mxCell>
        <mxCell id="7GZUmNrW7w7j3KrRRJnY-35" value="0" style="text;html=1;strokeColor=none;fillColor=none;align=center;verticalAlign=middle;whiteSpace=wrap;rounded=0;" vertex="1" parent="1">
          <mxGeometry x="185" y="270" width="30" height="30" as="geometry" />
        </mxCell>
        <mxCell id="7GZUmNrW7w7j3KrRRJnY-36" value="1" style="text;html=1;strokeColor=none;fillColor=none;align=center;verticalAlign=middle;whiteSpace=wrap;rounded=0;" vertex="1" parent="1">
          <mxGeometry x="245" y="270" width="30" height="30" as="geometry" />
        </mxCell>
        <mxCell id="7GZUmNrW7w7j3KrRRJnY-37" value="2" style="text;html=1;strokeColor=none;fillColor=none;align=center;verticalAlign=middle;whiteSpace=wrap;rounded=0;" vertex="1" parent="1">
          <mxGeometry x="295" y="270" width="30" height="30" as="geometry" />
        </mxCell>
        <mxCell id="7GZUmNrW7w7j3KrRRJnY-38" value="1" style="text;html=1;strokeColor=none;fillColor=none;align=center;verticalAlign=middle;whiteSpace=wrap;rounded=0;" vertex="1" parent="1">
          <mxGeometry x="355" y="270" width="30" height="30" as="geometry" />
        </mxCell>
        <mxCell id="7GZUmNrW7w7j3KrRRJnY-39" value="2" style="text;html=1;strokeColor=none;fillColor=none;align=center;verticalAlign=middle;whiteSpace=wrap;rounded=0;" vertex="1" parent="1">
          <mxGeometry x="398.5" y="270" width="30" height="30" as="geometry" />
        </mxCell>
        <mxCell id="7GZUmNrW7w7j3KrRRJnY-40" value="3" style="text;html=1;strokeColor=none;fillColor=none;align=center;verticalAlign=middle;whiteSpace=wrap;rounded=0;" vertex="1" parent="1">
          <mxGeometry x="430" y="270" width="30" height="30" as="geometry" />
        </mxCell>
        <mxCell id="7GZUmNrW7w7j3KrRRJnY-41" value="&lt;sup&gt;&lt;font style=&quot;font-size: 14px;&quot;&gt;[S]&lt;/font&gt;&lt;/sup&gt;" style="text;html=1;strokeColor=none;fillColor=none;align=center;verticalAlign=middle;whiteSpace=wrap;rounded=0;rotation=0;" vertex="1" parent="1">
          <mxGeometry x="220" y="200" width="60" height="30" as="geometry" />
        </mxCell>
        <mxCell id="7GZUmNrW7w7j3KrRRJnY-42" value="X&lt;sub&gt;7&lt;/sub&gt;" style="text;html=1;strokeColor=none;fillColor=none;align=center;verticalAlign=middle;whiteSpace=wrap;rounded=0;" vertex="1" parent="1">
          <mxGeometry x="414" y="200" width="60" height="30" as="geometry" />
        </mxCell>
        <mxCell id="7GZUmNrW7w7j3KrRRJnY-43" value="X&lt;sub&gt;8&lt;/sub&gt;" style="text;html=1;strokeColor=none;fillColor=none;align=center;verticalAlign=middle;whiteSpace=wrap;rounded=0;" vertex="1" parent="1">
          <mxGeometry x="450" y="200" width="60" height="30" as="geometry" />
        </mxCell>
        <mxCell id="7GZUmNrW7w7j3KrRRJnY-44" value="4" style="text;html=1;strokeColor=none;fillColor=none;align=center;verticalAlign=middle;whiteSpace=wrap;rounded=0;" vertex="1" parent="1">
          <mxGeometry x="465" y="245" width="30" height="20" as="geometry" />
        </mxCell>
        <mxCell id="7GZUmNrW7w7j3KrRRJnY-45" value="4" style="text;html=1;strokeColor=none;fillColor=none;align=center;verticalAlign=middle;whiteSpace=wrap;rounded=0;" vertex="1" parent="1">
          <mxGeometry x="465" y="270" width="30" height="30" as="geometry" />
        </mxCell>
        <mxCell id="7GZUmNrW7w7j3KrRRJnY-46" value="" style="rounded=0;whiteSpace=wrap;html=1;fillColor=#d5e8d4;strokeColor=none;" vertex="1" parent="1">
          <mxGeometry x="340" y="40" width="160" height="30" as="geometry" />
        </mxCell>
        <mxCell id="7GZUmNrW7w7j3KrRRJnY-47" value="" style="rounded=0;whiteSpace=wrap;html=1;fillColor=#fff2cc;strokeColor=none;" vertex="1" parent="1">
          <mxGeometry x="230" y="40" width="110" height="30" as="geometry" />
        </mxCell>
        <mxCell id="7GZUmNrW7w7j3KrRRJnY-48" value="&lt;sub&gt;X5&lt;/sub&gt;" style="text;html=1;strokeColor=none;fillColor=none;align=center;verticalAlign=middle;whiteSpace=wrap;rounded=0;rotation=0;" vertex="1" parent="1">
          <mxGeometry x="255" y="40" width="60" height="30" as="geometry" />
        </mxCell>
        <mxCell id="7GZUmNrW7w7j3KrRRJnY-49" value="[E]" style="text;html=1;strokeColor=none;fillColor=none;align=center;verticalAlign=middle;whiteSpace=wrap;rounded=0;" vertex="1" parent="1">
          <mxGeometry x="290" y="40" width="60" height="30" as="geometry" />
        </mxCell>
        <mxCell id="7GZUmNrW7w7j3KrRRJnY-50" value="[gMASK]" style="text;html=1;strokeColor=none;fillColor=none;align=center;verticalAlign=middle;whiteSpace=wrap;rounded=0;" vertex="1" parent="1">
          <mxGeometry x="340" y="40" width="60" height="30" as="geometry" />
        </mxCell>
        <mxCell id="7GZUmNrW7w7j3KrRRJnY-51" value="X7" style="text;html=1;strokeColor=none;fillColor=none;align=center;verticalAlign=middle;whiteSpace=wrap;rounded=0;" vertex="1" parent="1">
          <mxGeometry x="384" y="40" width="60" height="30" as="geometry" />
        </mxCell>
        <mxCell id="7GZUmNrW7w7j3KrRRJnY-52" value="&lt;font style=&quot;font-size: 12px;&quot;&gt;&lt;sub&gt;X4&lt;/sub&gt;&lt;/font&gt;" style="text;html=1;strokeColor=none;fillColor=none;align=center;verticalAlign=middle;whiteSpace=wrap;rounded=0;rotation=0;" vertex="1" parent="1">
          <mxGeometry x="220" y="40" width="60" height="30" as="geometry" />
        </mxCell>
        <mxCell id="7GZUmNrW7w7j3KrRRJnY-53" value="X8" style="text;html=1;strokeColor=none;fillColor=none;align=center;verticalAlign=middle;whiteSpace=wrap;rounded=0;" vertex="1" parent="1">
          <mxGeometry x="415" y="40" width="60" height="30" as="geometry" />
        </mxCell>
        <mxCell id="7GZUmNrW7w7j3KrRRJnY-54" value="[E]" style="text;html=1;strokeColor=none;fillColor=none;align=center;verticalAlign=middle;whiteSpace=wrap;rounded=0;" vertex="1" parent="1">
          <mxGeometry x="450" y="40" width="60" height="30" as="geometry" />
        </mxCell>
      </root>
    </mxGraphModel>
  </diagram>
</mxfile>
